<svg width="64" height="64" viewBox="0 0 64 64" fill="none" xmlns="http://www.w3.org/2000/svg">
  <defs>
    <linearGradient id="shelfGradientWhite" x1="0%" y1="0%" x2="100%" y2="100%">
      <stop offset="0%" style="stop-color:#ffffff;stop-opacity:1" />
      <stop offset="100%" style="stop-color:#f1f5f9;stop-opacity:1" />
    </linearGradient>
    <linearGradient id="itemGradient" x1="0%" y1="0%" x2="100%" y2="100%">
      <stop offset="0%" style="stop-color:#f59e0b;stop-opacity:1" />
      <stop offset="100%" style="stop-color:#d97706;stop-opacity:1" />
    </linearGradient>
    <linearGradient id="item2Gradient" x1="0%" y1="0%" x2="100%" y2="100%">
      <stop offset="0%" style="stop-color:#10b981;stop-opacity:1" />
      <stop offset="100%" style="stop-color:#059669;stop-opacity:1" />
    </linearGradient>
    <linearGradient id="item3Gradient" x1="0%" y1="0%" x2="100%" y2="100%">
      <stop offset="0%" style="stop-color:#8b5cf6;stop-opacity:1" />
      <stop offset="100%" style="stop-color:#7c3aed;stop-opacity:1" />
    </linearGradient>
  </defs>
  
  <!-- Background circle -->
  <circle cx="32" cy="32" r="30" fill="#1f2937" stroke="#374151" stroke-width="2"/>
  
  <!-- Main shelf structure -->
  <g transform="translate(32, 32)">
    <!-- Top shelf -->
    <rect x="-20" y="-16" width="40" height="3" rx="1.5" fill="url(#shelfGradientWhite)"/>
    
    <!-- Middle shelf -->
    <rect x="-20" y="-2" width="40" height="3" rx="1.5" fill="url(#shelfGradientWhite)"/>
    
    <!-- Bottom shelf -->
    <rect x="-20" y="12" width="40" height="3" rx="1.5" fill="url(#shelfGradientWhite)"/>
    
    <!-- Shelf supports -->
    <rect x="-22" y="-16" width="2" height="31" rx="1" fill="url(#shelfGradientWhite)" opacity="0.8"/>
    <rect x="20" y="-16" width="2" height="31" rx="1" fill="url(#shelfGradientWhite)" opacity="0.8"/>
    
    <!-- Items on shelves -->
    <!-- Top shelf items -->
    <rect x="-16" y="-13" width="6" height="10" rx="1" fill="url(#itemGradient)"/>
    <rect x="-8" y="-13" width="5" height="10" rx="1" fill="url(#item2Gradient)"/>
    <rect x="4" y="-13" width="7" height="10" rx="1" fill="url(#item3Gradient)"/>
    
    <!-- Middle shelf items -->
    <rect x="-14" y="1" width="8" height="10" rx="1" fill="url(#item2Gradient)"/>
    <rect x="2" y="1" width="6" height="10" rx="1" fill="url(#itemGradient)"/>
    <rect x="10" y="1" width="5" height="10" rx="1" fill="url(#item3Gradient)"/>
    
    <!-- Bottom shelf items -->
    <rect x="-16" y="15" width="5" height="10" rx="1" fill="url(#item3Gradient)"/>
    <rect x="-9" y="15" width="7" height="10" rx="1" fill="url(#itemGradient)"/>
    <rect x="6" y="15" width="6" height="10" rx="1" fill="url(#item2Gradient)"/>
    
    <!-- Subtle highlights on items -->
    <rect x="-15" y="-12" width="4" height="1" rx="0.5" fill="white" opacity="0.3"/>
    <rect x="-13" y="2" width="6" height="1" rx="0.5" fill="white" opacity="0.3"/>
    <rect x="-15" y="16" width="3" height="1" rx="0.5" fill="white" opacity="0.3"/>
  </g>
</svg>